{
	"asset":{
		"generator":"Khronos glTF Blender I/O v4.2.70",
		"version":"2.0"
	},
	"scene":0,
	"scenes":[
		{
			"name":"Scene",
			"nodes":[
				0,
				1,
				2
			]
		}
	],
	"nodes":[
		{
			"mesh":0,
			"name":"Wall",
			"scale":[
				3,
				3,
				0.29999998211860657
			],
			"translation":[
				7,
				3,
				0
			]
		},
		{
			"mesh":1,
			"name":"Window",
			"scale":[
				3,
				3,
				0.29999998211860657
			],
			"translation":[
				0,
				3,
				0
			]
		},
		{
			"mesh":2,
			"name":"Floor",
			"rotation":[
				-0.707217276096344,
				0,
				0,
				0.7069962620735168
			],
			"scale":[
				3,
				3,
				0.29999998211860657
			],
			"translation":[
				6,
				0,
				-5.200000286102295
			]
		}
	],
	"meshes":[
		{
			"name":"Cube.001",
			"primitives":[
				{
					"attributes":{
						"POSITION":0,
						"NORMAL":1,
						"TEXCOORD_0":2,
						"TANGENT":3
					},
					"indices":4
				}
			]
		},
		{
			"name":"Cube.002",
			"primitives":[
				{
					"attributes":{
						"POSITION":5,
						"NORMAL":6,
						"TEXCOORD_0":7
					},
					"indices":8
				}
			]
		},
		{
			"name":"Cube.003",
			"primitives":[
				{
					"attributes":{
						"POSITION":9,
						"NORMAL":10,
						"TEXCOORD_0":11,
						"TANGENT":12
					},
					"indices":4
				}
			]
		}
	],
	"accessors":[
		{
			"bufferView":0,
			"componentType":5126,
			"count":24,
			"max":[
				1,
				1,
				1
			],
			"min":[
				-1,
				-1,
				-1
			],
			"type":"VEC3"
		},
		{
			"bufferView":1,
			"componentType":5126,
			"count":24,
			"type":"VEC3"
		},
		{
			"bufferView":2,
			"componentType":5126,
			"count":24,
			"type":"VEC2"
		},
		{
			"bufferView":3,
			"componentType":5126,
			"count":24,
			"type":"VEC4"
		},
		{
			"bufferView":4,
			"componentType":5123,
			"count":36,
			"type":"SCALAR"
		},
		{
			"bufferView":5,
			"componentType":5126,
			"count":146,
			"max":[
				1,
				1,
				1
			],
			"min":[
				-1,
				-1,
				-1
			],
			"type":"VEC3"
		},
		{
			"bufferView":6,
			"componentType":5126,
			"count":146,
			"type":"VEC3"
		},
		{
			"bufferView":7,
			"componentType":5126,
			"count":146,
			"type":"VEC2"
		},
		{
			"bufferView":8,
			"componentType":5123,
			"count":414,
			"type":"SCALAR"
		},
		{
			"bufferView":9,
			"componentType":5126,
			"count":24,
			"max":[
				1,
				1,
				1
			],
			"min":[
				-1,
				-1,
				-1
			],
			"type":"VEC3"
		},
		{
			"bufferView":10,
			"componentType":5126,
			"count":24,
			"type":"VEC3"
		},
		{
			"bufferView":11,
			"componentType":5126,
			"count":24,
			"type":"VEC2"
		},
		{
			"bufferView":12,
			"componentType":5126,
			"count":24,
			"type":"VEC4"
		}
	],
	"bufferViews":[
		{
			"buffer":0,
			"byteLength":288,
			"byteOffset":0,
			"target":34962
		},
		{
			"buffer":0,
			"byteLength":288,
			"byteOffset":288,
			"target":34962
		},
		{
			"buffer":0,
			"byteLength":192,
			"byteOffset":576,
			"target":34962
		},
		{
			"buffer":0,
			"byteLength":384,
			"byteOffset":768,
			"target":34962
		},
		{
			"buffer":0,
			"byteLength":72,
			"byteOffset":1152,
			"target":34963
		},
		{
			"buffer":0,
			"byteLength":1752,
			"byteOffset":1224,
			"target":34962
		},
		{
			"buffer":0,
			"byteLength":1752,
			"byteOffset":2976,
			"target":34962
		},
		{
			"buffer":0,
			"byteLength":1168,
			"byteOffset":4728,
			"target":34962
		},
		{
			"buffer":0,
			"byteLength":828,
			"byteOffset":5896,
			"target":34963
		},
		{
			"buffer":0,
			"byteLength":288,
			"byteOffset":6724,
			"target":34962
		},
		{
			"buffer":0,
			"byteLength":288,
			"byteOffset":7012,
			"target":34962
		},
		{
			"buffer":0,
			"byteLength":192,
			"byteOffset":7300,
			"target":34962
		},
		{
			"buffer":0,
			"byteLength":384,
			"byteOffset":7492,
			"target":34962
		}
	],
	"buffers":[
		{
			"byteLength":7876,
			"uri":"modular1-c6217b1fb4933e40f2ab9975624f97d2.bin"
		}
	]
}
